<svg xmlns="http://www.w3.org/2000/svg" viewBox="0 0 47.17 104.56"><g id="Layer_2" data-name="Layer 2"><g id="Layer_1-2" data-name="Layer 1"><path d="M47.16,43H31.26c-1.51,0-1.43-1.07-1.43-2.09q0-6.49,0-13A25.39,25.39,0,0,0,29,21.24c-.75-2.74-2.47-4-5.32-3.95s-4.57,1.24-5.25,4a22.35,22.35,0,0,0-.68,4.94q-.59,26,0,52a24.27,24.27,0,0,0,.67,4.94c.66,2.74,2.44,4,5.24,4.06a5,5,0,0,0,5.34-4,31.4,31.4,0,0,0,.83-8.43c0-4.31,0-8.63,0-13.07h17.3c-.12,6.75.28,13.38-.25,20A36.59,36.59,0,0,1,45,91c-3.81,10.67-12.75,14.21-23.56,13.47C6,103.4,1.42,93.36.64,81.9-.55,64.19.31,46.44.19,28.7a45.81,45.81,0,0,1,2-14.51c2.71-8.38,9-13.42,17.86-14A34.69,34.69,0,0,1,31.23.81c8.69,2.25,13.08,8.32,14.86,16.7S46.84,34.25,47.16,43Z"/></g></g></svg>